HIERARCHY
ROOT Hips
{
  OFFSET 31.6921 94.5317 -6.04131
  CHANNELS 6 Xposition Yposition Zposition Zrotation Xrotation Yrotation
  JOINT RightUpLeg
  {
    OFFSET -8.9458 -8.66707 0.101652
    CHANNELS 3 Zrotation Xrotation Yrotation
    JOINT RightLeg
    {
      OFFSET 0 -44.4227 1.3727
      CHANNELS 3 Zrotation Xrotation Yrotation
      JOINT RightFoot
      {
        OFFSET 0.253549 -42.0924 -1.46059
        CHANNELS 3 Zrotation Xrotation Yrotation
        JOINT RightToes
        {
          OFFSET 0.04 -4.41509 8.4991
          CHANNELS 3 Zrotation Xrotation Yrotation
          End Site
          {
            OFFSET -0.08 -0.137448 9.77979
          }
        }
      }
    }
  }
  JOINT Spine
  {
    OFFSET 0 11.8905 0
    CHANNELS 3 Zrotation Xrotation Yrotation
    JOINT Spine1
    {
      OFFSET 0 25.6574 0.127663
      CHANNELS 3 Zrotation Xrotation Yrotation
      JOINT HEad
      {
        OFFSET 0 8.73416 0.011341
        CHANNELS 3 Zrotation Xrotation Yrotation
        End Site
        {
          OFFSET -0.29 12.7742 2.51395
        }
      }
      JOINT LeftShoulder1
      {
        OFFSET 8.99 -0.362252 -0.22
        CHANNELS 3 Zrotation Xrotation Yrotation
        JOINT LeftArm
        {
          OFFSET 10.2827 -0.00338 0.322123
          CHANNELS 3 Zrotation Xrotation Yrotation
          JOINT LeftForeArm
          {
            OFFSET 32.7669 0.099144 -1.42434
            CHANNELS 3 Zrotation Xrotation Yrotation
            JOINT LeftHand
            {
              OFFSET 27.5643 0.085362 1.02216
              CHANNELS 3 Zrotation Xrotation Yrotation
              End Site
              {
                OFFSET 16.7443 -0.6 1.50291
              }
            }
          }
        }
      }
      JOINT RightShoulder
      {
        OFFSET -8.99 -0.362252 -0.22
        CHANNELS 3 Zrotation Xrotation Yrotation
        JOINT RightArm
        {
          OFFSET -10.2827 -0.00338 0.322123
          CHANNELS 3 Zrotation Xrotation Yrotation
          JOINT RightForeArm
          {
            OFFSET -32.8971 0.099144 -1.42434
            CHANNELS 3 Zrotation Xrotation Yrotation
            JOINT RightHand
            {
              OFFSET -27.4921 0.085362 1.02216
              CHANNELS 3 Zrotation Xrotation Yrotation
              End Site
              {
                OFFSET -16.6312 -0.6 1.50291
              }
            }
          }
        }
      }
    }
  }
  JOINT LeftUpLeg
  {
    OFFSET 8.9458 -8.66707 0.101652
    CHANNELS 3 Zrotation Xrotation Yrotation
    JOINT LeftLeg
    {
      OFFSET 0 -44.4227 1.3727
      CHANNELS 3 Zrotation Xrotation Yrotation
      JOINT LeftFoot
      {
        OFFSET -0.253549 -42.0924 -1.46059
        CHANNELS 3 Zrotation Xrotation Yrotation
        JOINT LeftToes
        {
          OFFSET -0.04 -4.41509 8.4991
          CHANNELS 3 Zrotation Xrotation Yrotation
          End Site
          {
            OFFSET 0.08 -0.047448 9.77979
          }
        }
      }
    }
  }
}
MOTION
Frames:	12
Frame Time:	0.0166667
29.4929 94.2896 3.22635 5.5319 18.4175 -176.783 -31.6231 -2.63211 -11.5889 44.0227 64.7258 -26.6818 55.0252 2.95598 -1.90574 0.0462048 0.000533403 0.662642 3.20099 14.2369 3.89934 -0.0101287 0.0148 -0.00682033 13.9678 13.0816 -31.4005 -9.93923e-017 0 -1.59028e-015 -104.589 -18.1094 -86.9128 -64.7114 42.0663 -37.9531 13.606 20.579 -13.6549 13.9853 10.6782 0.798657 121.071 -30.236 97.2176 30.2252 44.9403 64.2613 18.8475 27.1423 7.16792 15.8556 -10.8452 -6.74459 -39.697 12.6755 79.0538 4.80328 -5.34456 -0.664175 -1.18447e-009 1.5602e-007 -4.87131e-009 
29.4857 94.7156 3.37893 6.24384 20.0327 -174.866 -27.6676 -4.09434 -18.5519 32.0627 70.4511 -10.6805 37.1866 4.27288 -2.26687 0.0462048 0.000533403 0.662642 4.44091 16.1338 2.34858 -0.0115785 0.0148 -0.00682033 14.5403 12.9704 -32.3343 9.93923e-017 -3.97569e-016 -1.59028e-015 -104.502 -17.6013 -86.1916 -69.2146 38.463 -39.4955 14.1809 22.8481 -15.8242 15.4917 9.7832 -0.421077 118.179 -31.7215 95.6968 25.2221 43.7861 64.5952 17.6882 24.7315 12.2538 15.4411 -9.64882 -9.02879 -38.0137 12.991 77.1162 4.51881 -4.95645 -0.568502 -1.18447e-009 1.5602e-007 -4.87132e-009 
29.6627 95.0357 3.4324 7.43839 23.071 -171.884 -23.7767 -4.32262 -26.1515 11.7342 76.2107 14.019 32.1653 4.05547 -1.47215 0.0462048 0.000533403 0.662642 6.61961 18.7376 -0.561988 -0.00825708 0.0148 -0.00682033 15.3479 13.237 -33.3289 1.19271e-015 0 3.18055e-015 -104.066 -16.9617 -84.6847 -71.4108 36.7837 -40.6775 13.6981 27.2708 -11.6716 17.4112 9.21704 -1.74132 115.442 -32.9745 94.3557 22.7216 43.1263 65.1556 17.3648 23.2168 14.6176 16.1767 -7.78838 -12.7755 -37.4589 13.632 75.5154 4.1256 -5.12997 -0.62484 -1.18447e-009 1.5602e-007 -4.87132e-009 
29.8235 95.6628 3.24949 8.41696 25.8959 -169.222 -20.9131 -6.96608 -34.2475 -32.5594 81.1069 60.8033 21.1809 4.47291 -1.30432 0.0462048 0.000533403 0.662642 8.46992 20.6435 -3.04839 -0.0034863 0.0148 -0.00682033 16.36 13.8598 -34.3795 4.96962e-016 1.59028e-015 1.59028e-015 -103.367 -16.2174 -82.5255 -72.2762 36.3907 -41.628 26.9314 11.3445 -24.0608 19.6903 8.92611 -3.12823 112.818 -34.274 93.1046 21.7079 42.7867 65.8916 17.1441 22.2251 14.8719 16.9639 -5.81667 -16.1865 -36.5928 14.1607 73.74 3.5559 -5.22778 -0.665636 -1.18447e-009 1.5602e-007 -4.87131e-009 
30.0229 96.3283 2.89771 9.21286 28.5902 -166.824 -19.6227 -10.8662 -42.2713 -83.2407 78.5121 112.976 13.3684 4.63052 -0.868306 0.0462048 0.000533403 0.662642 9.99312 22.0203 -5.14106 0.00136361 0.0148 -0.00682033 17.5391 14.8128 -35.4931 9.93923e-016 -7.95139e-016 -0 -102.48 -15.3974 -79.8428 -72.2965 36.8081 -42.4594 22.6455 22.8222 -17.4928 22.2541 8.89098 -4.59821 110.295 -35.7283 91.8963 21.5931 42.6757 66.7435 17.1936 21.6446 14.6 18.036 -3.89275 -19.3075 -35.9778 14.7512 72.09 2.8467 -5.4849 -0.759538 -1.18446e-009 1.5602e-007 -4.87131e-009 
30.1936 97.0413 2.44982 9.84031 31.2192 -164.66 -19.8766 -15.895 -50.4675 -108.068 72.0339 137.688 2.25883 4.87433 -0.584259 0.0462048 0.000533403 0.662642 11.2187 23.0055 -6.85627 0.00565407 0.0148 -0.00682033 18.8474 16.0625 -36.6867 2.78299e-015 0 -0 -101.418 -14.73 -76.926 -71.8656 37.4233 -43.6489 25.0188 15.5377 -22.7058 25.0486 9.11769 -6.16187 107.887 -37.3713 90.7563 22.0334 42.7298 67.6474 17.2165 21.2195 13.7099 19.1884 -1.80671 -22.232 -35.2047 15.1859 70.459 2.09014 -5.69257 -0.839013 -1.18446e-009 1.5602e-007 -4.87132e-009 
30.4689 97.407 1.93914 10.3671 35.7934 -162.181 -22.1823 -18.7391 -57.4779 -117.199 66.3241 145.708 7.36137 4.60246 -0.71331 0.0462048 0.000533403 0.662642 13.299 25.4229 -9.27539 0.00667059 0.0148 -0.00682033 20.235 17.5461 -37.9688 1.98785e-015 1.59028e-015 1.59028e-015 -100.263 -14.1542 -73.8132 -71.2555 38.2597 -44.7785 21.8469 21.9249 -18.2339 28.0063 9.59525 -7.81176 105.643 -39.1653 89.7431 22.8009 42.9195 68.5419 17.3503 20.8802 12.8639 21.4647 1.5255 -26.1952 -35.369 15.8099 69.3606 1.32848 -6.32909 -1.05315 -1.18447e-009 1.5602e-007 -4.8713e-009 
30.521 97.982 1.53766 10.611 39.9482 -159.966 -24.931 -22.4757 -65.4176 -124.594 61.6165 149.969 -12.0443 4.51684 0.171976 0.0462048 0.000533403 0.662642 15.1022 27.2748 -11.2178 0.00742638 0.0148 -0.00682033 21.6611 19.2056 -39.3449 -2.78299e-015 1.59028e-015 -1.59028e-015 -99.0277 -13.7725 -70.6229 -70.6431 39.1291 -45.9582 23.1292 17.6254 -21.1391 31.0545 10.2911 -9.5559 103.618 -41.0349 88.8961 23.7335 43.2218 69.3651 17.4064 20.5947 11.8598 23.2925 5.25638 -29.8431 -34.0678 15.5539 67.7935 0.800722 -6.20809 -1.00495 -1.18447e-009 1.5602e-007 -4.87132e-009 
30.7599 97.9792 0.928282 10.5816 43.7193 -157.973 -31.2505 -25.2095 -70.9212 -128.117 59.1527 151.429 -1.93603 4.69086 -0.962057 0.0462048 0.000533403 0.662642 16.6125 28.6823 -12.6914 0.00798707 0.0148 -0.00682033 23.1054 20.9968 -40.8058 3.97569e-016 0 3.18055e-015 -97.784 -13.5214 -67.4051 -70.1205 40.0749 -46.9213 20.8323 21.1523 -18.1346 33.9865 11.0645 -11.3986 101.866 -42.8821 88.1254 24.6985 43.6045 70.0943 17.4213 20.5522 11.1429 25.6033 8.11665 -33.2629 -34.1848 15.6876 67.0292 0.263556 -6.66697 -1.15098 -1.18446e-009 1.5602e-007 -4.87132e-009 
30.7892 98.0977 0.388244 10.2711 47.1357 -156.141 -37.116 -27.6799 -76.2596 -131.29 59.1556 151.76 -15.0223 3.44135 0.289536 0.0462048 0.000533403 0.662642 17.7471 29.7227 -13.7251 0.00843513 0.0148 -0.00682033 24.5851 22.8992 -42.3253 2.38542e-015 0 3.18055e-015 -96.5729 -13.4259 -64.282 -69.7404 40.9832 -47.7756 21.5535 18.4484 -20.219 36.5102 11.7223 -13.2785 100.408 -44.6285 87.2892 25.6034 43.9963 70.729 17.2593 20.857 10.6301 27.349 11.4322 -36.2976 -32.8769 15.1027 65.8768 -0.050743 -6.26431 -1.02929 -1.18447e-009 1.5602e-007 -4.87131e-009 
30.8947 98.0405 -0.3097 9.67816 50.2213 -154.409 -44.4836 -29.1127 -78.9867 -132.229 62.5656 151.936 -12.1417 2.86134 -0.737219 0.0462048 0.000533403 0.662642 18.4095 30.4448 -14.3559 0.00885303 0.0148 -0.00682033 26.1282 24.8998 -43.8692 -3.18055e-015 -3.18055e-015 -3.18055e-015 -95.4648 -13.4269 -61.3282 -69.5094 41.8762 -48.418 20.0532 20.2451 -18.7454 38.5025 12.2079 -15.1171 99.2178 -46.1947 86.4008 26.3977 44.3319 71.2903 17.0323 21.3267 10.3843 29.1069 14.4374 -39.058 -31.8663 14.6523 65.0493 -0.403299 -5.80632 -0.935685 -1.18447e-009 1.5602e-007 -4.87131e-009 
30.8863 98.0631 -0.899784 8.82588 52.9964 -152.738 -50.9556 -30.5684 -80.429 -132.898 68.1217 152.431 -18.5472 1.28165 -0.16298 0.0462048 0.000533403 0.662642 18.5431 30.8808 -14.6197 0.00932327 0.0148 -0.00682033 27.7545 26.9828 -45.4075 0 0 -3.18055e-015 -94.4579 -13.5428 -58.6136 -69.4212 42.6845 -48.9476 20.3119 18.4881 -20.273 40.0339 12.5813 -16.8384 98.2578 -47.5385 85.5933 27.0612 44.5792 71.8007 16.7453 21.7805 10.165 30.5447 17.4977 -41.4195 -30.3601 14.0403 64.2274 -0.644911 -4.89553 -0.739187 -1.18447e-009 1.5602e-007 -4.87131e-009 
